<svg xmlns="http://www.w3.org/2000/svg" viewBox="0 0 513.3094010767585 352" width="513.3094010767585" height="352"><rect x="0" y="0" width="513.3094010767585" height="352" fill="white"/><g transform="translate(25 25)"><g><line x1="60" y1="-10" x2="60" y2="312" stroke="black" stroke-width="2" stroke-dasharray="4"/><line x1="128" y1="-10" x2="128" y2="312" stroke="black" stroke-width="2" stroke-dasharray="4"/><line x1="200" y1="-10" x2="200" y2="312" stroke="black" stroke-width="2" stroke-dasharray="4"/><line x1="268" y1="-10" x2="268" y2="312" stroke="black" stroke-width="2" stroke-dasharray="4"/><line x1="335" y1="-10" x2="335" y2="312" stroke="black" stroke-width="2" stroke-dasharray="4"/></g><g><text x="40" y="15" fill="black" font-family="Arial, Helvetica, sans-serif" font-size="18px" font-weight="normal" font-style="italic" dominant-baseline="middle" text-anchor="end">t</text><text x="94" y="15" fill="black" font-family="Arial, Helvetica, sans-serif" font-size="18px" font-weight="normal" font-style="italic" dominant-baseline="middle" text-anchor="middle">0</text><text x="164" y="15" fill="black" font-family="Arial, Helvetica, sans-serif" font-size="18px" font-weight="normal" font-style="italic" dominant-baseline="middle" text-anchor="middle">1</text><text x="234" y="15" fill="black" font-family="Arial, Helvetica, sans-serif" font-size="18px" font-weight="normal" font-style="italic" dominant-baseline="middle" text-anchor="middle">2</text><text x="301.5" y="15" fill="black" font-family="Arial, Helvetica, sans-serif" font-size="18px" font-weight="normal" font-style="italic" dominant-baseline="middle" text-anchor="middle">3</text><text x="368" y="15" fill="black" font-family="Arial, Helvetica, sans-serif" font-size="18px" font-weight="normal" font-style="italic" dominant-baseline="middle" text-anchor="middle">4</text></g><g transform="translate(0 50)"><rect x="50" y="1" width="371" height="46" fill="white" stroke="black" stroke-width="2"/><line x1="128" y1="1" x2="128" y2="47" stroke="black" stroke-width="2"/><line x1="200" y1="1" x2="200" y2="47" stroke="black" stroke-width="2"/><line x1="268" y1="1" x2="268" y2="47" stroke="black" stroke-width="2"/><line x1="335" y1="1" x2="335" y2="47" stroke="black" stroke-width="2"/><text x="72" y="24" fill="black" font-family="Arial, Helvetica, sans-serif" font-size="18px" font-weight="normal" font-style="italic" dominant-baseline="middle">'a'</text><text x="150" y="24" fill="black" font-family="Arial, Helvetica, sans-serif" font-size="18px" font-weight="normal" font-style="italic" dominant-baseline="middle">'b'</text><text x="222" y="24" fill="black" font-family="Arial, Helvetica, sans-serif" font-size="18px" font-weight="normal" font-style="italic" dominant-baseline="middle">'c'</text><text x="290" y="24" fill="black" font-family="Arial, Helvetica, sans-serif" font-size="18px" font-weight="normal" font-style="italic" dominant-baseline="middle">'d'</text><text x="357" y="24" fill="black" font-family="Arial, Helvetica, sans-serif" font-size="18px" font-weight="normal" font-style="italic" dominant-baseline="middle">'e'</text><line x1="421" y1="24" x2="461" y2="24" stroke="black" stroke-width="2"/><polyline points="451,18.226497308103742 461,24 451,29.773502691896258" fill="none" stroke="black" stroke-width="2" stroke-linecap="square"/><text x="40" y="24" fill="black" font-family="Arial, Helvetica, sans-serif" font-size="18px" font-weight="normal" font-style="italic" dominant-baseline="middle" text-anchor="end">c1</text></g><g transform="translate(0 118)"><rect x="50" y="1" width="371" height="46" fill="white" stroke="black" stroke-width="2"/><line x1="128" y1="1" x2="128" y2="47" stroke="black" stroke-width="2"/><line x1="200" y1="1" x2="200" y2="47" stroke="black" stroke-width="2"/><line x1="268" y1="1" x2="268" y2="47" stroke="black" stroke-width="2"/><line x1="335" y1="1" x2="335" y2="47" stroke="black" stroke-width="2"/><text x="72" y="24" fill="black" font-family="Arial, Helvetica, sans-serif" font-size="18px" font-weight="normal" font-style="italic" dominant-baseline="middle">'V'</text><text x="150" y="24" fill="black" font-family="Arial, Helvetica, sans-serif" font-size="18px" font-weight="normal" font-style="italic" dominant-baseline="middle">'W'</text><text x="222" y="24" fill="black" font-family="Arial, Helvetica, sans-serif" font-size="18px" font-weight="normal" font-style="italic" dominant-baseline="middle">'X'</text><text x="290" y="24" fill="black" font-family="Arial, Helvetica, sans-serif" font-size="18px" font-weight="normal" font-style="italic" dominant-baseline="middle">'Y'</text><text x="357" y="24" fill="black" font-family="Arial, Helvetica, sans-serif" font-size="18px" font-weight="normal" font-style="italic" dominant-baseline="middle">'Z'</text><line x1="421" y1="24" x2="461" y2="24" stroke="black" stroke-width="2"/><polyline points="451,18.226497308103742 461,24 451,29.773502691896258" fill="none" stroke="black" stroke-width="2" stroke-linecap="square"/><text x="40" y="24" fill="black" font-family="Arial, Helvetica, sans-serif" font-size="18px" font-weight="normal" font-style="italic" dominant-baseline="middle" text-anchor="end">c2</text></g><g transform="translate(0 186)"><rect x="50" y="1" width="371" height="46" fill="white" stroke="black" stroke-width="2"/><line x1="200" y1="1" x2="200" y2="47" stroke="black" stroke-width="2"/><text x="72" y="24" fill="black" font-family="Arial, Helvetica, sans-serif" font-size="18px" font-weight="normal" font-style="italic" dominant-baseline="middle">c1</text><text x="222" y="24" fill="black" font-family="Arial, Helvetica, sans-serif" font-size="18px" font-weight="normal" font-style="italic" dominant-baseline="middle">c2</text><line x1="421" y1="24" x2="461" y2="24" stroke="black" stroke-width="2"/><polyline points="451,18.226497308103742 461,24 451,29.773502691896258" fill="none" stroke="black" stroke-width="2" stroke-linecap="square"/><text x="40" y="24" fill="black" font-family="Arial, Helvetica, sans-serif" font-size="18px" font-weight="normal" font-style="italic" dominant-baseline="middle" text-anchor="end">c3</text></g><g transform="translate(0 254)"><rect x="50" y="1" width="371" height="46" fill="white" stroke="black" stroke-width="2"/><line x1="128" y1="1" x2="128" y2="47" stroke="black" stroke-width="2"/><line x1="200" y1="1" x2="200" y2="47" stroke="black" stroke-width="2"/><line x1="268" y1="1" x2="268" y2="47" stroke="black" stroke-width="2"/><line x1="335" y1="1" x2="335" y2="47" stroke="black" stroke-width="2"/><text x="72" y="24" fill="black" font-family="Arial, Helvetica, sans-serif" font-size="18px" font-weight="normal" font-style="italic" dominant-baseline="middle">'a'</text><text x="150" y="24" fill="black" font-family="Arial, Helvetica, sans-serif" font-size="18px" font-weight="normal" font-style="italic" dominant-baseline="middle">'b'</text><text x="222" y="24" fill="black" font-family="Arial, Helvetica, sans-serif" font-size="18px" font-weight="normal" font-style="italic" dominant-baseline="middle">'X'</text><text x="290" y="24" fill="black" font-family="Arial, Helvetica, sans-serif" font-size="18px" font-weight="normal" font-style="italic" dominant-baseline="middle">'Y'</text><text x="357" y="24" fill="black" font-family="Arial, Helvetica, sans-serif" font-size="18px" font-weight="normal" font-style="italic" dominant-baseline="middle">'Z'</text><line x1="421" y1="24" x2="461" y2="24" stroke="black" stroke-width="2"/><polyline points="451,18.226497308103742 461,24 451,29.773502691896258" fill="none" stroke="black" stroke-width="2" stroke-linecap="square"/><text x="40" y="24" fill="black" font-family="Arial, Helvetica, sans-serif" font-size="18px" font-weight="normal" font-style="italic" dominant-baseline="middle" text-anchor="end">c4</text></g></g></svg>