<svg xmlns="http://www.w3.org/2000/svg" viewBox="0 0 682.3094010767585 330" width="682.3094010767585" height="330"><rect x="0" y="0" width="682.3094010767585" height="330" fill="white"/><g transform="translate(25 25)"><g><text x="0" y="25" fill="black" font-family="Arial, Helvetica, sans-serif" font-size="18px" font-weight="normal" font-style="italic" dominant-baseline="middle">source</text><g transform="translate(100 0)"><g><line x1="0" y1="25" x2="290" y2="25" stroke="black" stroke-width="2"/><polyline points="280,19.226497308103742 290,25 280,30.773502691896258" fill="none" stroke="black" stroke-width="2" stroke-linecap="square"/></g><g transform="translate(225 10)"><line x1="0" y1="0" x2="30" y2="30" stroke="black" stroke-width="2"/><line x1="30" y1="0" x2="0" y2="30" stroke="black" stroke-width="2"/></g><g transform="translate(130 0)"><ellipse cx="20" cy="25" rx="19" ry="19" fill="white" stroke="black" stroke-width="2"/><text x="0" y="0" fill="black" font-family="Arial, Helvetica, sans-serif" font-size="18px" font-weight="normal" font-style="italic" dominant-baseline="middle" text-anchor="middle" transform="translate(20 25)">b</text></g><g transform="translate(40 0)"><ellipse cx="20" cy="25" rx="19" ry="19" fill="white" stroke="black" stroke-width="2"/><text x="0" y="0" fill="black" font-family="Arial, Helvetica, sans-serif" font-size="18px" font-weight="normal" font-style="italic" dominant-baseline="middle" text-anchor="middle" transform="translate(20 25)">a</text></g></g></g><g transform="translate(0 70)"><text x="0" y="25" fill="black" font-family="Arial, Helvetica, sans-serif" font-size="18px" font-weight="normal" font-style="italic" dominant-baseline="middle">next</text><g transform="translate(100 0)"><g><line x1="0" y1="25" x2="290" y2="25" stroke="black" stroke-width="2"/><polyline points="280,19.226497308103742 290,25 280,30.773502691896258" fill="none" stroke="black" stroke-width="2" stroke-linecap="square"/></g><g transform="translate(239 0)"><line x1="0" y1="0" x2="0" y2="50" stroke="black" stroke-width="2"/></g><g transform="translate(130 0)"><ellipse cx="20" cy="25" rx="19" ry="19" fill="white" stroke="black" stroke-width="2"/><text x="0" y="0" fill="black" font-family="Arial, Helvetica, sans-serif" font-size="18px" font-weight="normal" font-style="italic" dominant-baseline="middle" text-anchor="middle" transform="translate(20 25)">d</text></g><g transform="translate(40 0)"><ellipse cx="20" cy="25" rx="19" ry="19" fill="white" stroke="black" stroke-width="2"/><text x="0" y="0" fill="black" font-family="Arial, Helvetica, sans-serif" font-size="18px" font-weight="normal" font-style="italic" dominant-baseline="middle" text-anchor="middle" transform="translate(20 25)">c</text></g></g></g><g transform="translate(0 140)"><rect x="1" y="11" width="630.3094010767585" height="48" fill="white" stroke="black" stroke-width="2" rx="0"/><text x="316.15470053837925" y="35" fill="black" dominant-baseline="middle" text-anchor="middle" font-family="Arial, Helvetica, sans-serif" font-size="24px" font-weight="normal" font-style="normal" width="632.3094010767585">onErrorResumeNext</text></g><g transform="translate(0 230)"><text x="0" y="25" fill="black" font-family="Arial, Helvetica, sans-serif" font-size="18px" font-weight="normal" font-style="italic" dominant-baseline="middle">output</text><g transform="translate(100 0)"><g><line x1="0" y1="25" x2="530" y2="25" stroke="black" stroke-width="2"/><polyline points="520,19.226497308103742 530,25 520,30.773502691896258" fill="none" stroke="black" stroke-width="2" stroke-linecap="square"/></g><g transform="translate(479 0)"><line x1="0" y1="0" x2="0" y2="50" stroke="black" stroke-width="2"/></g><g transform="translate(370 0)"><ellipse cx="20" cy="25" rx="19" ry="19" fill="white" stroke="black" stroke-width="2"/><text x="0" y="0" fill="black" font-family="Arial, Helvetica, sans-serif" font-size="18px" font-weight="normal" font-style="italic" dominant-baseline="middle" text-anchor="middle" transform="translate(20 25)">d</text></g><g transform="translate(280 0)"><ellipse cx="20" cy="25" rx="19" ry="19" fill="white" stroke="black" stroke-width="2"/><text x="0" y="0" fill="black" font-family="Arial, Helvetica, sans-serif" font-size="18px" font-weight="normal" font-style="italic" dominant-baseline="middle" text-anchor="middle" transform="translate(20 25)">c</text></g><g transform="translate(130 0)"><ellipse cx="20" cy="25" rx="19" ry="19" fill="white" stroke="black" stroke-width="2"/><text x="0" y="0" fill="black" font-family="Arial, Helvetica, sans-serif" font-size="18px" font-weight="normal" font-style="italic" dominant-baseline="middle" text-anchor="middle" transform="translate(20 25)">b</text></g><g transform="translate(40 0)"><ellipse cx="20" cy="25" rx="19" ry="19" fill="white" stroke="black" stroke-width="2"/><text x="0" y="0" fill="black" font-family="Arial, Helvetica, sans-serif" font-size="18px" font-weight="normal" font-style="italic" dominant-baseline="middle" text-anchor="middle" transform="translate(20 25)">a</text></g></g></g></g></svg>