<svg xmlns="http://www.w3.org/2000/svg" width="657.309" height="200" viewBox="0 0 657.309 200"><path fill="#fff" d="M0 0h657.309v200H0z"/><g stroke="rgba(0, 0, 0, 0.5)" stroke-dasharray="4"><path stroke-width="2" d="M85 15v170"/><path stroke-width="1.5" d="M182 15v170M279 15v170"/><path stroke-width="2" d="M376 15v170"/><path stroke-width="1.5" d="M473 15v170"/><path stroke-width="2" d="M570 15v170"/></g><g dominant-baseline="middle" font-family="Arial, Helvetica, sans-serif" font-size="18" font-style="italic"><text x="40" y="15" text-anchor="end" transform="translate(25 25)">t</text><text x="108.5" y="15" text-anchor="middle" transform="translate(25 25)">[0]</text><text x="205.5" y="15" text-anchor="middle" transform="translate(25 25)">[0,0]</text><text x="302.5" y="15" text-anchor="middle" transform="translate(25 25)">[0,1]</text><text x="399.5" y="15" text-anchor="middle" transform="translate(25 25)">[1]</text><text x="496.5" y="15" text-anchor="middle" transform="translate(25 25)">[1,0]</text></g><text x="108.5" y="20" dominant-baseline="middle" font-family="Arial, Helvetica, sans-serif" font-size="18" text-anchor="middle" transform="translate(25 75)">[&apos;a&apos;,&apos;b&apos;]</text><text x="399.5" y="20" dominant-baseline="middle" font-family="Arial, Helvetica, sans-serif" font-size="18" text-anchor="middle" transform="translate(25 75)">[&apos;c&apos;]</text><path stroke="#000" stroke-width="2" d="M75 95h555"/><path fill="none" stroke="#000" stroke-linecap="square" stroke-width="2" d="M620 89.226 630 95l-10 5.774"/><text x="40" y="20" dominant-baseline="middle" font-family="Arial, Helvetica, sans-serif" font-size="18" font-style="italic" text-anchor="end" transform="translate(25 75)">s1</text><text x="205.5" y="20" dominant-baseline="middle" font-family="Arial, Helvetica, sans-serif" font-size="18" text-anchor="middle" transform="translate(25 135)">&apos;a&apos;</text><text x="302.5" y="20" dominant-baseline="middle" font-family="Arial, Helvetica, sans-serif" font-size="18" text-anchor="middle" transform="translate(25 135)">&apos;b&apos;</text><text x="496.5" y="20" dominant-baseline="middle" font-family="Arial, Helvetica, sans-serif" font-size="18" text-anchor="middle" transform="translate(25 135)">&apos;c&apos;</text><path stroke="#000" stroke-width="2" d="M75 155h555"/><path fill="none" stroke="#000" stroke-linecap="square" stroke-width="2" d="M620 149.226 630 155l-10 5.774"/><text x="40" y="20" dominant-baseline="middle" font-family="Arial, Helvetica, sans-serif" font-size="18" font-style="italic" text-anchor="end" transform="translate(25 135)">s2</text></svg>